<svg width="1024" height="1024" viewBox="0 0 1024 1024" fill="none" xmlns="http://www.w3.org/2000/svg">
<path d="M152.6 397.24H133.08V375.8H152.6V397.24ZM150.68 617.4C150.68 630.2 147.48 639.693 141.08 645.88C134.893 652.067 126.467 655.16 115.8 655.16C111.32 655.16 106.947 654.733 102.68 653.88V640.12C104.6 640.547 106.733 640.76 109.08 640.76C111.64 640.973 113.773 641.08 115.48 641.08C121.24 641.08 125.933 639.16 129.56 635.32C133.187 631.693 135 626.04 135 618.36V439.8H150.68V617.4ZM339.808 603H324.448V575.8C321.674 579.64 318.261 583.48 314.208 587.32C310.368 590.947 305.888 594.253 300.768 597.24C295.648 600.013 289.781 602.253 283.168 603.96C276.768 605.88 269.728 606.84 262.048 606.84C254.368 606.84 246.794 605.773 239.328 603.64C231.861 601.507 225.141 598.307 219.168 594.04C213.194 589.773 208.288 584.44 204.448 578.04C200.821 571.64 199.008 564.173 199.008 555.64V555C199.008 546.467 200.714 538.893 204.128 532.28C207.754 525.667 212.661 520.12 218.848 515.64C225.034 511.16 232.501 507.747 241.248 505.4C249.994 503.053 259.701 501.88 270.368 501.88C281.888 501.88 291.808 502.52 300.128 503.8C308.448 505.08 316.554 506.787 324.448 508.92V501.88C324.448 485.24 319.648 472.76 310.048 464.44C300.661 456.12 287.541 451.96 270.688 451.96C260.661 451.96 251.488 453.24 243.168 455.8C234.848 458.147 226.954 461.24 219.488 465.08L213.728 451.32C222.688 447.053 231.754 443.64 240.928 441.08C250.101 438.52 260.341 437.24 271.648 437.24C292.768 437.24 309.408 442.573 321.568 453.24C333.728 463.907 339.808 479.907 339.808 501.24V603ZM324.768 541.88V523.32C317.941 521.613 309.941 520.013 300.768 518.52C291.594 516.813 281.141 515.96 269.408 515.96C252.128 515.96 238.794 519.48 229.408 526.52C220.234 533.347 215.648 542.52 215.648 554.04V554.68C215.648 560.653 216.928 565.987 219.488 570.68C222.048 575.16 225.461 579 229.727 582.2C234.208 585.4 239.328 587.853 245.088 589.56C250.848 591.267 256.821 592.12 263.008 592.12C271.328 592.12 279.221 590.947 286.688 588.6C294.154 586.04 300.661 582.627 306.208 578.36C311.968 573.88 316.448 568.547 319.648 562.36C323.061 556.173 324.768 549.347 324.768 541.88ZM484.198 454.52H482.598C473.211 454.52 464.251 456.333 455.718 459.96C447.184 463.373 439.611 468.6 432.998 475.64C426.598 482.467 421.478 491 417.638 501.24C413.798 511.267 411.878 522.893 411.878 536.12V603H396.198V439.8H411.878V486.2C415.078 478.947 419.131 472.227 424.038 466.04C428.944 459.853 434.491 454.627 440.678 450.36C446.864 445.88 453.584 442.573 460.838 440.44C468.304 438.093 476.091 437.027 484.198 437.24V454.52ZM667.683 439.8L594.403 604.28H580.963L507.683 439.8H525.923L587.683 585.4L650.083 439.8H667.683ZM730.413 397.24H710.893V375.8H730.413V397.24ZM728.493 603H712.813V439.8H728.493V603ZM899.38 558.52C899.38 565.773 897.887 572.387 894.9 578.36C892.127 584.12 888.18 589.133 883.06 593.4C877.94 597.453 871.967 600.653 865.14 603C858.313 605.133 850.953 606.2 843.06 606.2C831.113 606.2 819.167 604.067 807.22 599.8C795.273 595.32 784.927 589.56 776.18 582.52L785.46 570.04C794.42 576.867 803.807 582.2 813.62 586.04C823.433 589.667 833.567 591.48 844.02 591.48C855.113 591.48 864.393 588.707 871.86 583.16C879.54 577.613 883.38 570.04 883.38 560.44V559.8C883.38 555.107 882.207 551.053 879.86 547.64C877.513 544.227 874.313 541.24 870.26 538.68C866.207 536.12 861.62 533.987 856.5 532.28C851.38 530.573 845.94 528.867 840.18 527.16C833.567 525.24 826.847 523.213 820.02 521.08C813.407 518.947 807.433 516.28 802.1 513.08C796.767 509.667 792.393 505.507 788.98 500.6C785.78 495.693 784.18 489.613 784.18 482.36V481.72C784.18 475.107 785.46 469.133 788.02 463.8C790.793 458.253 794.527 453.453 799.22 449.4C803.913 445.347 809.567 442.253 816.18 440.12C822.793 437.773 830.047 436.6 837.94 436.6C847.753 436.6 857.78 438.2 868.02 441.4C878.473 444.6 887.753 448.973 895.86 454.52L887.54 467.64C880.073 462.733 871.967 458.787 863.22 455.8C854.687 452.813 846.047 451.32 837.3 451.32C825.993 451.32 816.927 454.093 810.1 459.64C803.487 464.973 800.18 471.693 800.18 479.8V480.44C800.18 484.92 801.46 488.867 804.02 492.28C806.58 495.48 809.887 498.253 813.94 500.6C818.207 502.947 823.113 505.08 828.66 507C834.207 508.707 839.86 510.413 845.62 512.12C852.233 514.04 858.74 516.173 865.14 518.52C871.54 520.653 877.3 523.533 882.42 527.16C887.54 530.573 891.593 534.733 894.58 539.64C897.78 544.547 899.38 550.627 899.38 557.88V558.52Z" fill="#E5E5E7"/>
</svg>
