<svg width="260" height="260" viewBox="0 0 260 260" fill="none" xmlns="http://www.w3.org/2000/svg">
<path d="M130.47 64.29C123.124 64.29 117.234 62.3267 112.8 58.4C108.367 54.4733 106.15 49.5333 106.15 43.58C106.15 37.5 108.367 32.4967 112.8 28.57C117.234 24.5167 123.124 22.49 130.47 22.49C137.69 22.49 143.517 24.5167 147.95 28.57C152.384 32.4967 154.6 37.5 154.6 43.58C154.6 49.5333 152.384 54.4733 147.95 58.4C143.517 62.3267 137.69 64.29 130.47 64.29ZM151.75 187.41C151.75 216.67 137.057 231.3 107.67 231.3H93.6104V195.39H101.78C104.567 195.39 106.53 194.82 107.67 193.68C108.937 192.54 109.57 190.703 109.57 188.17V72.84H151.75V187.41Z" fill="#1C1C1E"/>
</svg>
