<svg width="798" height="281" viewBox="0 0 798 281" fill="none" xmlns="http://www.w3.org/2000/svg">
<path d="M50.6 22.24H31.08V0.799988H50.6V22.24ZM48.68 242.4C48.68 255.2 45.48 264.693 39.08 270.88C32.8933 277.067 24.4667 280.16 13.8 280.16C9.32 280.16 4.94667 279.733 0.68 278.88V265.12C2.6 265.547 4.73333 265.76 7.08 265.76C9.64 265.973 11.7733 266.08 13.48 266.08C19.24 266.08 23.9333 264.16 27.56 260.32C31.1867 256.693 33 251.04 33 243.36V64.8H48.68V242.4ZM237.808 228H222.448V200.8C219.674 204.64 216.261 208.48 212.208 212.32C208.368 215.947 203.888 219.253 198.768 222.24C193.648 225.013 187.781 227.253 181.168 228.96C174.768 230.88 167.728 231.84 160.048 231.84C152.368 231.84 144.794 230.773 137.328 228.64C129.861 226.507 123.141 223.307 117.168 219.04C111.194 214.773 106.288 209.44 102.448 203.04C98.8208 196.64 97.0075 189.173 97.0075 180.64V180C97.0075 171.467 98.7142 163.893 102.128 157.28C105.754 150.667 110.661 145.12 116.848 140.64C123.034 136.16 130.501 132.747 139.248 130.4C147.994 128.053 157.701 126.88 168.368 126.88C179.888 126.88 189.808 127.52 198.128 128.8C206.448 130.08 214.554 131.787 222.448 133.92V126.88C222.448 110.24 217.648 97.76 208.048 89.44C198.661 81.12 185.541 76.96 168.688 76.96C158.661 76.96 149.488 78.24 141.168 80.8C132.848 83.1467 124.954 86.24 117.488 90.08L111.728 76.32C120.688 72.0533 129.754 68.64 138.928 66.08C148.101 63.52 158.341 62.24 169.648 62.24C190.768 62.24 207.408 67.5733 219.568 78.24C231.728 88.9067 237.808 104.907 237.808 126.24V228ZM222.768 166.88V148.32C215.941 146.613 207.941 145.013 198.768 143.52C189.594 141.813 179.141 140.96 167.408 140.96C150.128 140.96 136.794 144.48 127.408 151.52C118.234 158.347 113.648 167.52 113.648 179.04V179.68C113.648 185.653 114.928 190.987 117.488 195.68C120.048 200.16 123.461 204 127.727 207.2C132.208 210.4 137.328 212.853 143.088 214.56C148.848 216.267 154.821 217.12 161.008 217.12C169.328 217.12 177.221 215.947 184.688 213.6C192.154 211.04 198.661 207.627 204.208 203.36C209.968 198.88 214.448 193.547 217.648 187.36C221.061 181.173 222.768 174.347 222.768 166.88ZM382.198 79.52H380.598C371.211 79.52 362.251 81.3333 353.718 84.96C345.184 88.3733 337.611 93.6 330.998 100.64C324.598 107.467 319.478 116 315.638 126.24C311.798 136.267 309.878 147.893 309.878 161.12V228H294.198V64.8H309.878V111.2C313.078 103.947 317.131 97.2267 322.038 91.04C326.944 84.8533 332.491 79.6267 338.678 75.36C344.864 70.88 351.584 67.5733 358.838 65.44C366.304 63.0933 374.091 62.0267 382.198 62.24V79.52ZM565.683 64.8L492.403 229.28H478.963L405.683 64.8H423.923L485.683 210.4L548.083 64.8H565.683ZM628.413 22.24H608.893V0.799988H628.413V22.24ZM626.493 228H610.813V64.8H626.493V228ZM797.38 183.52C797.38 190.773 795.887 197.387 792.9 203.36C790.127 209.12 786.18 214.133 781.06 218.4C775.94 222.453 769.967 225.653 763.14 228C756.313 230.133 748.953 231.2 741.06 231.2C729.113 231.2 717.167 229.067 705.22 224.8C693.273 220.32 682.927 214.56 674.18 207.52L683.46 195.04C692.42 201.867 701.807 207.2 711.62 211.04C721.433 214.667 731.567 216.48 742.02 216.48C753.113 216.48 762.393 213.707 769.86 208.16C777.54 202.613 781.38 195.04 781.38 185.44V184.8C781.38 180.107 780.207 176.053 777.86 172.64C775.513 169.227 772.313 166.24 768.26 163.68C764.207 161.12 759.62 158.987 754.5 157.28C749.38 155.573 743.94 153.867 738.18 152.16C731.567 150.24 724.847 148.213 718.02 146.08C711.407 143.947 705.433 141.28 700.1 138.08C694.767 134.667 690.393 130.507 686.98 125.6C683.78 120.693 682.18 114.613 682.18 107.36V106.72C682.18 100.107 683.46 94.1333 686.02 88.8C688.793 83.2533 692.527 78.4533 697.22 74.4C701.913 70.3467 707.567 67.2533 714.18 65.12C720.793 62.7733 728.047 61.6 735.94 61.6C745.753 61.6 755.78 63.2 766.02 66.4C776.473 69.6 785.753 73.9733 793.86 79.52L785.54 92.64C778.073 87.7333 769.967 83.7867 761.22 80.8C752.687 77.8133 744.047 76.32 735.3 76.32C723.993 76.32 714.927 79.0933 708.1 84.64C701.487 89.9733 698.18 96.6933 698.18 104.8V105.44C698.18 109.92 699.46 113.867 702.02 117.28C704.58 120.48 707.887 123.253 711.94 125.6C716.207 127.947 721.113 130.08 726.66 132C732.207 133.707 737.86 135.413 743.62 137.12C750.233 139.04 756.74 141.173 763.14 143.52C769.54 145.653 775.3 148.533 780.42 152.16C785.54 155.573 789.593 159.733 792.58 164.64C795.78 169.547 797.38 175.627 797.38 182.88V183.52Z" fill="#121212"/>
</svg>
